# xmcd CD database file
# Copyright (C) 1997 Ti Kan
#
# Track frame offsets:
#  222
#  10957
#  23415
#  32690
#  46130
#  56942
#  69347
#  82922
#  94052
#  109212
#
# Disc length: 1643 seconds
#
# Revision: 1
# Processed by: cddbd v1.4b41PL1 Copyright (c) Steve Scherf et al.
# Submitted via: CDWizzard Release:4.32
#
DISCID=7206690a
DTITLE=Riders In The Sky - New Trails
DYEAR=1900
DGENRE=
TTITLE0=Cimarron
TTITLE1=Trail of Tears
TTITLE2=I'm Satisfied With You
TTITLE3=Even Texas Isn't Big Enough
TTITLE4=Slowpoke
TTITLE5=Blue Bonnet Lady
TTITLE6=Cowboy of the Highway
TTITLE7=Any Time
TTITLE8=All Those Years
TTITLE9=Soon As the Roundup's Through
EXTD=Rounder CD 0220\nAAD
EXTT0=
EXTT1=
EXTT2=
EXTT3=
EXTT4=
EXTT5=
EXTT6=
EXTT7=
EXTT8=
EXTT9=
PLAYORDER=
